<svg xmlns="http://www.w3.org/2000/svg" xmlns:xlink="http://www.w3.org/1999/xlink" version="1.1" x="0px" y="0px" viewBox="0 0 100 125" enable-background="new 0 0 100 100" xml:space="preserve"><rect x="33" y="35" width="4" height="40"/><rect x="43" y="35" width="4" height="40"/><rect x="53" y="35" width="4" height="40"/><rect x="63" y="35" width="4" height="40"/><path d="M57,13H43c-5.514,0-10,4.486-10,10H15v4h8v54c0,3.309,2.691,6,6,6h42c3.309,0,6-2.691,6-6V27h8v-4H67  C67,17.486,62.514,13,57,13z M43,17h14c3.309,0,6,2.691,6,6H37C37,19.691,39.691,17,43,17z M73,27v54c0,1.103-0.897,2-2,2H29  c-1.103,0-2-0.897-2-2V27H73z"/><text x="0" y="115" fill="#000000" font-size="5px" font-weight="bold" font-family="'Helvetica Neue', Helvetica, Arial-Unicode, Arial, Sans-serif">Created by Anton Ivanov</text><text x="0" y="120" fill="#000000" font-size="5px" font-weight="bold" font-family="'Helvetica Neue', Helvetica, Arial-Unicode, Arial, Sans-serif">from the Noun Project</text></svg>