<svg xmlns="http://www.w3.org/2000/svg" xmlns:xlink="http://www.w3.org/1999/xlink" version="1.1" x="0px" y="0px" viewBox="0 0 64 80" enable-background="new 0 0 64 64" xml:space="preserve"><path d="M54.096,16.38l-8.477-8.477c-1.152-1.148-3.158-1.128-4.248,0.001L11.629,37.618c-0.451,0.499-0.709,1.027-0.781,1.577  l-1.787,10.27c-0.164,0.986,0.133,1.944,0.818,2.629c0.574,0.574,1.322,0.891,2.109,0.891c0.172,0,0.348-0.016,0.525-0.046  l10.316-1.79c0.629-0.127,1.148-0.402,1.586-0.841l29.68-29.679c0.58-0.58,0.895-1.348,0.889-2.162  C54.977,17.666,54.656,16.921,54.096,16.38z M12.172,50.968c-0.33,0.058-0.631-0.039-0.879-0.288  c-0.232-0.231-0.32-0.53-0.262-0.879l1.695-9.743l9.234,9.212L12.172,50.968z M52.682,19.215L23.709,48.188l-9.924-9.898  L42.799,9.306c0.18-0.187,0.424-0.289,0.686-0.289c0.27,0,0.527,0.107,0.721,0.302l8.488,8.488c0.186,0.178,0.287,0.419,0.291,0.678  C52.986,18.758,52.879,19.018,52.682,19.215z M50.752,54.95H10.756c-0.553,0-1,0.447-1,1s0.447,1,1,1h39.996c0.553,0,1-0.447,1-1  S51.305,54.95,50.752,54.95z"/><text x="0" y="79" fill="#000000" font-size="5px" font-weight="bold" font-family="'Helvetica Neue', Helvetica, Arial-Unicode, Arial, Sans-serif">Created by Ongycon</text><text x="0" y="84" fill="#000000" font-size="5px" font-weight="bold" font-family="'Helvetica Neue', Helvetica, Arial-Unicode, Arial, Sans-serif">from the Noun Project</text></svg>